REM MD5 8a3de1880f628c825d1d2abeccc987eb
FILE "Next Station 3 (Italy) (En,It).bin" BINARY
  TRACK 01 MODE2/2352
    INDEX 01 00:00:00
  TRACK 02 AUDIO
    INDEX 00 36:52:38
    INDEX 01 36:54:38
  TRACK 03 AUDIO
    INDEX 00 37:02:03
    INDEX 01 37:04:03
  TRACK 04 AUDIO
    INDEX 00 37:11:37
    INDEX 01 37:13:37
REM LEADOUT 41:03:07
